<svg width="477" height="477" viewBox="0 0 477 477" fill="none" xmlns="http://www.w3.org/2000/svg">
<rect width="477" height="477" fill="#C8FA00"/>
<path d="M209.511 136.188C165.87 136.188 122.201 136.188 78.5592 136.188C76.5629 136.188 74.5389 136.327 72.5703 136.078C67.9678 135.523 65.2783 132.917 65.1951 128.203C65.001 117.584 65.001 106.937 65.1951 96.2902C65.306 91.3272 68.0509 88.6932 73.0694 88.1664C74.8162 87.9723 76.6184 88.0832 78.3929 88.0832C165.454 88.0832 252.542 88.1109 339.603 88C348.808 88 356.294 90.8004 362.755 97.427C376.036 111.068 389.511 124.543 403.18 137.852C409.307 143.813 412.246 150.689 412.219 159.146C412.108 181.299 412.108 203.453 412.219 225.606C412.246 233.813 409.529 240.606 403.623 246.401C389.705 260.042 375.897 273.822 362.283 287.796C356.489 293.758 349.696 296.586 341.544 296.586C313.402 296.586 285.259 296.669 257.117 296.586C248.411 296.558 246.138 294.035 246.082 285.412C246.027 276.539 245.999 267.695 246.082 258.822C246.165 251.392 248.716 248.868 256.119 248.868C284.261 248.813 312.404 248.868 340.546 248.868C342.542 248.868 344.566 249.007 346.507 248.73C349.973 248.259 352.025 246.096 352.44 242.63C352.662 240.883 352.579 239.081 352.579 237.307C352.579 207.39 352.579 177.473 352.579 147.556C352.579 146.004 352.635 144.451 352.496 142.898C352.08 138.462 350.195 136.604 345.814 136.244C343.818 136.105 341.821 136.188 339.825 136.188C296.405 136.188 252.958 136.188 209.539 136.188H209.511Z" fill="#131313"/>
<path d="M316.562 386.696C316.479 387.195 316.091 387.694 315.592 387.861C314.317 388.277 311.96 388.221 310.324 388.221C295.047 388.304 279.769 388.166 264.464 388.277C256.341 388.332 248.55 385.088 242.838 379.321C210.315 346.493 177.57 313.914 144.908 281.225C143.661 279.977 142.33 278.757 141.276 277.343C138.864 274.044 138.947 270.828 141.498 267.611C142.579 266.225 143.91 265.033 145.186 263.785C177.598 231.373 210.093 199.016 242.394 166.465C248.91 159.894 256.174 156.734 265.463 156.983C279.853 157.371 294.243 157.094 308.66 157.094C310.213 157.094 311.793 156.983 313.291 157.233C316.063 157.704 316.923 159.756 315.259 162.057C314.095 163.665 312.57 164.996 311.156 166.41C278.965 198.739 246.775 231.068 214.557 263.397C205.934 272.048 205.934 273.129 214.779 281.974C247.385 314.524 280.019 347.047 312.57 379.654C314.344 381.456 316.756 385.06 316.535 386.668L316.562 386.696Z" fill="#131313"/>
<path d="M124.751 270.994C124.751 303.767 124.751 336.567 124.751 369.34C124.751 371.558 124.751 373.776 124.751 375.994C124.585 386.336 122.921 388.138 112.829 388.249C100.879 388.36 88.9009 388.305 76.9509 388.249C75.1764 388.249 73.4019 388.166 71.6551 387.833C67.4684 387.057 65.6385 384.95 65.1949 380.652C65.0562 379.127 65.1117 377.547 65.1117 375.994C65.1117 325.948 65.2226 275.874 65.0008 225.828C64.9453 216.54 67.8012 209.22 74.4555 202.76C88.5959 189.035 102.376 174.922 116.378 161.059C118.125 159.063 121.202 156.54 122.699 157.649C124.252 158.675 124.64 162.251 124.64 164.691C124.751 200.126 124.723 235.56 124.723 270.994H124.751Z" fill="#131313"/>
</svg>
