<?xml version="1.0" encoding="UTF-8"?>
<svg id="Layer_2" data-name="Layer 2" xmlns="http://www.w3.org/2000/svg" viewBox="0 0 328.95 193.15">
  <defs>
    <style>
      .cls-1 {
        fill: #FFFFFF;
      }

      .cls-2 {
        fill: #FFFFFF;
      }
    </style>
  </defs>
  <g id="Layer_1-2" data-name="Layer 1">
    <g>
      <path class="cls-1" d="m52.12,17.38c-15.74,0-31.49,0-47.23,0-.72,0-1.45.05-2.16-.04-1.66-.2-2.63-1.14-2.66-2.84C0,10.67,0,6.83.07,2.99.11,1.2,1.1.25,2.91.06c.63-.07,1.28-.03,1.92-.03C36.23.03,67.64.04,99.04,0c3.32,0,6.02,1.01,8.35,3.4,4.79,4.92,9.65,9.78,14.58,14.58,2.21,2.15,3.27,4.63,3.26,7.68-.04,7.99-.04,15.98,0,23.97.01,2.96-.97,5.41-3.1,7.5-5.02,4.92-10,9.89-14.91,14.93-2.09,2.15-4.54,3.17-7.48,3.17-10.15,0-20.3.03-30.45,0-3.14-.01-3.96-.92-3.98-4.03-.02-3.2-.03-6.39,0-9.59.03-2.68.95-3.59,3.62-3.59,10.15-.02,20.3,0,30.45,0,.72,0,1.45.05,2.15-.05,1.25-.17,1.99-.95,2.14-2.2.08-.63.05-1.28.05-1.92,0-10.79,0-21.58,0-32.37,0-.56.02-1.12-.03-1.68-.15-1.6-.83-2.27-2.41-2.4-.72-.05-1.44-.02-2.16-.02-15.66,0-31.33,0-46.99,0Z"/>
      <path class="cls-1" d="m90.73,107.73c-.03.18-.17.36-.35.42-.46.15-1.31.13-1.9.13-5.51.03-11.02-.02-16.54.02-2.93.02-5.74-1.15-7.8-3.23-11.73-11.84-23.54-23.59-35.32-35.38-.45-.45-.93-.89-1.31-1.4-.87-1.19-.84-2.35.08-3.51.39-.5.87-.93,1.33-1.38,11.69-11.69,23.41-23.36,35.06-35.1,2.35-2.37,4.97-3.51,8.32-3.42,5.19.14,10.38.04,15.58.04.56,0,1.13-.04,1.67.05,1,.17,1.31.91.71,1.74-.42.58-.97,1.06-1.48,1.57-11.61,11.66-23.22,23.32-34.84,34.98-3.11,3.12-3.11,3.51.08,6.7,11.76,11.74,23.53,23.47,35.27,35.23.64.65,1.51,1.95,1.43,2.53Z"/>
      <path class="cls-1" d="m21.55,66c0,11.82,0,23.65,0,35.47,0,.8,0,1.6,0,2.4-.06,3.73-.66,4.38-4.3,4.42-4.31.04-8.63.02-12.94,0-.64,0-1.28-.03-1.91-.15-1.51-.28-2.17-1.04-2.33-2.59-.05-.55-.03-1.12-.03-1.68,0-18.05.04-36.11-.04-54.16-.02-3.35,1.01-5.99,3.41-8.32,5.1-4.95,10.07-10.04,15.12-15.04.63-.72,1.74-1.63,2.28-1.23.56.37.7,1.66.7,2.54.04,12.78.03,25.56.03,38.34Z"/>
      <path class="cls-2" d="m269.91,182.29c2.32,0,5.18-.09,7.38.03.33.85.33.94.66,1.41,1.33,1.75,2.27,2.3,4.2,2.29,1.78.13,3.35.02,5.03,0,2.57-.05,4.2-1.22,5.03-3.63.85-2.47.45-4.99.42-7.81-.76.65-1.28,1.11-1.81,1.55-1.9,1.59-4.04,2.52-6.58,2.39-1.99-.1-4.03.13-5.97-.21-5.09-.91-8.82-5.02-8.99-10.38-.24-7.34-.06-14.69-.05-22.04,0-.15,0-.64,0-1.1h7.93c0,1.03,0,2.33,0,3.19,0,5.59-.02,11.18.02,16.77,0,1.19.1,2.41.36,3.56.49,2.11,1.95,3.22,4.11,3.32.88.04,1.76.13,2.8,0,3.25-.59,4.72-1,6.47-3.04,1.19-1.39,1.82-2.92,1.8-4.8-.06-5.27-.02-10.54-.02-15.81,0-.86.03-2.13.03-3.18h8.03c0,1.06-.01,2.15-.01,2.99.01,9.98.02,19.96,0,29.95,0,1.67,0,3.39-.36,5.01-1.15,5.22-4.21,8.77-9.61,9.75-4.25.77-8.61.91-12.82-.14-4.38-1.09-7.04-3.84-7.91-8.38-.07-.42-.14-.93-.14-1.65Z"/>
      <path class="cls-2" d="m22.65,131.48c2.14.03,4.36.17,6.38.79,4.88,1.49,7.87,4.85,8.23,10.04.22,3.18.22,6.4-.05,9.57-.47,5.54-4.79,10.08-10.35,10.61-4.6.44-7.59.23-12.3.25-1.18.03-1.52-.02-3.29.01.03-1.73-.02-4.99,0-7.05,2.89,0,5.28,0,7.67,0,1.6,0,3.2.05,4.79-.02,2.87-.13,4.97-1.77,5.26-4.6.29-2.76.26-5.59.01-8.35-.22-2.39-1.95-3.98-4.34-4.04-5.34-.14-10.97,0-16.57,0,.02,2.13.06,2.1.06,3.1-.02,11.11-.01,22.22-.01,33.32v3.3c-2.87,0-5.27.07-8.06.07v-47.05"/>
      <path class="cls-2" d="m117.96,145.27h7.94s0,0,0,0c0,.99,0,1.77,0,2.56,0,10.58.02,21.15-.03,31.73,0,1-.16,2.63-.39,3.61-1.19,4.9-4.15,8.23-9.05,9.27-4.4.93-8.91.98-13.29-.05-3.99-.95-6.69-3.52-7.81-7.53-.06-.21-.09-.42-.12-.63l-.18-1.74h7.63c.82,3.02,4.29,3.75,5.61,3.95,1.52.27,2.38-.06,3.87-.35,2.62-.51,4.69-1.56,5.39-4.15.49-1.79.43-5.17.43-7.79-.15.15-.61.76-.69.85-3.96,4.5-9.17,4.03-14.22,3.19-4.68-.78-7.79-4.5-8.5-9.22-.17-1.1-.28-2.22-.29-3.34-.03-6.07-.02-12.14-.01-18.21,0-.63,0-1.51,0-2.42,2.55,0,5.33.03,8.12.03,0,0,0,0,0,0,0,.97,0,1.93,0,2.8.01,5.91-.01,11.82.03,17.73,0,1.02.11,2.08.41,3.05.59,1.43,1.42,2.37,4.06,3.04,0,0,.02,0,.03,0,.79.03,1.59,0,2.38,0,5.11,0,8.62-3.51,8.66-8.72.04-4.95,0-9.9.01-14.85,0-.87,0-1.73,0-2.85Z"/>
      <path class="cls-2" d="m267.1,164.59h-24.74c0,5.08.8,7.43,5.02,7.9,2.05.23,4.16.2,6.22,0,3.12-.3,4.17-1.28,5.38-4.49h7.95c0,2.69-.84,4.23-2.08,6.02-1.97,2.85-4.85,4.38-8.18,4.96-4.12.72-8.28.68-12.41.01-5.85-.95-9.92-5.35-10.21-11.29-.19-3.82-.19-7.68.05-11.5.38-6.11,4.94-10.82,11.03-11.34,3.4-.29,6.86-.34,10.26-.04,6.51.59,10.6,4.7,11.32,11.27.29,2.67.39,5.39.39,8.51Zm-8.63-6.29c.57-4.15-1.48-6.83-5.18-7.03-1.83-.1-3.68-.09-5.51,0-3.74.18-6,2.94-5.6,7.04,5.43.09,10.89.1,16.3,0Z"/>
      <path class="cls-2" d="m163.52,164.6h-24.6c0,1.46-.07,2.61.04,3.79.38,1.93,1.58,3.48,3.58,3.72,2.67.32,5.4.44,8.08.3,2.63-.14,4.48-1.57,4.99-4.45h7.75c0,2.42-.59,4.28-1.81,6.07-1.96,2.87-4.86,4.35-8.18,4.94-4.11.72-8.27.68-12.39.01-5.77-.94-9.81-5.16-10.23-11.03-.27-3.81-.27-7.67,0-11.48.57-7.82,6.47-11.39,11.51-11.65,3.41-.18,6.86-.26,10.25.04,5.96.51,10.24,4.92,10.82,10.92.23,2.38.15,4.78.17,7.18,0,.46,0,.91,0,1.65Zm-24.62-6.57c2.92,0,14.33-.14,16.46-.14.27-4.16-1.85-6.56-5.91-6.64-1.52-.03-3.03-.03-4.55,0-3.98.09-6.25,2.62-6,6.78Z"/>
      <path class="cls-2" d="m89.5,178.73c-2.34,0-5.05.03-7.53.03,0-1.14-.04-2.44-.04-3.52-.21.21-.47.42-.56.51-4.88,4.55-12.64,3.24-16.57,2.8-.21-.02-.42-.06-.63-.12-4.04-1.19-6.05-4.29-6.39-8.54-.72-8.96,5-11.63,11.23-12.03,3.18-.21,6.39-.04,9.58-.05.87,0,2.03,0,2.84,0,0-3.7-.78-6.1-4.28-6.45-2.06-.2-4.15-.12-6.22,0-2.27.12-4.53,1.14-4.53,3.6h-7.34c0-1.78,0-3.03.66-4.38,1.66-3.35,4.6-5.06,8.12-5.68,4.11-.72,8.27-.68,12.4-.03,5.34.83,9.12,4.97,9.21,10.34.12,7.35.04,14.7.04,22.05,0,.46,0,.85,0,1.48Zm-8.15-14.54c-4.13,0-8.12-.08-12.1.03-2.16.06-3.32,1.39-3.51,3.51-.28,3.04.42,4.57,2.87,4.92,2.33.33,4.79.36,7.1-.01,4.22-.69,5.64-3.54,5.64-8.45Z"/>
      <path class="cls-2" d="m223.38,178.73c-6.62-7.66-13.08-15.17-19.71-22.81-.21-.27-.36-.53-.62-.88.42-.58.81-1.17,1.25-1.73,5.26-6.64,10.43-13.35,15.78-19.92,1.09-1.34,1.17-1.36,1.46-1.65,2.4,0,6.98-.15,9.86-.15-.04-.03-4.87,6.18-4.83,6.21-1.54,1.94-3.13,3.84-4.69,5.76-1.52,1.86-3.04,3.71-4.55,5.57-1.55,1.91-3.1,3.83-4.74,5.87,6.8,7.78,13.73,15.84,20.63,23.73"/>
      <path class="cls-2" d="m55.22,171.88v6.73c-3.87,0-7.57.44-10.99-1.49-1.93-1.09-2.91-2.93-3.33-5.04-.25-1.24-.36-2.53-.37-3.8-.03-11.34-.02-22.68-.01-34.01,0-.71,0-1.36,0-2.41,2.72,0,5.3-.01,8.15-.01,0,1.12,0,2.07,0,3.01,0,10.7,0,21.4,0,32.1,0,.8-.04,1.6.05,2.39.18,1.53.95,2.24,2.5,2.36,1.25.1,2.48.18,4.01.18Z"/>
      <path class="cls-2" d="m193.61,131.74h8.32c0,1.79,0,43.61,0,46.88-2.62,0-5.71.07-8.28.07,0-1.88-.04-43.33-.04-46.95Z"/>
      <path class="cls-2" d="m168.44,145.2h7.14c0,1.27.03,3.05.03,4.48,3.64-3.5,8.13-5.36,13.02-4.57v6.77c-1.76.09-3.48.16-5.19.26-2.8.15-4.94,1.51-6.08,3.98-.68,1.47-.97,3.21-1.01,4.85-.13,4.95-.05,9.9-.05,14.85,0,.86,0,1.73,0,2.77-2.75,0-5.14.04-7.86.04v-33.41Z"/>
      <g>
        <path class="cls-2" d="m109.88,107.65v-7.12h-2.55v-1.56h6.94v1.56h-2.53v7.12h-1.86Z"/>
        <path class="cls-2" d="m124.47,107.65h-1.73v-6.81h-.05l-2.05,6.81h-1.67l-1.98-6.82h-.05v6.82h-1.69v-8.68h2.76l1.83,6.34h.05l1.82-6.34h2.75v8.68Z"/>
      </g>
      <g>
        <path class="cls-2" d="m314.36,153.22v-7.12h-2.55v-1.56h6.94v1.56h-2.53v7.12h-1.86Z"/>
        <path class="cls-2" d="m328.95,153.22h-1.73v-6.81h-.05l-2.05,6.81h-1.67l-1.98-6.82h-.05v6.82h-1.69v-8.68h2.76l1.83,6.34h.05l1.82-6.34h2.75v8.68Z"/>
      </g>
    </g>
  </g>
</svg>
